<svg xmlns="http://www.w3.org/2000/svg" width="24" height="24" fill="none">
    <path fill="#4285F4" fill-rule="evenodd"
          d="M23.04 11.798c0-.815-.073-1.6-.21-2.352H12v4.449h6.19a5.29 5.29 0 0 1-2.296 3.47v2.886h3.717c2.174-2.002 3.429-4.95 3.429-8.453Z"
          clip-rule="evenodd"/>
    <path fill="#34A853" fill-rule="evenodd"
          d="M12 23.037c3.105 0 5.708-1.03 7.61-2.786l-3.716-2.886c-1.03.69-2.347 1.098-3.894 1.098-2.995 0-5.53-2.023-6.435-4.741H1.723v2.98A11.496 11.496 0 0 0 12 23.037Z"
          clip-rule="evenodd"/>
    <path fill="#FBBC05" fill-rule="evenodd"
          d="M5.565 13.722a6.913 6.913 0 0 1-.36-2.185c0-.758.13-1.495.36-2.185v-2.98H1.723A11.495 11.495 0 0 0 .5 11.538c0 1.856.444 3.612 1.223 5.165l3.842-2.98Z"
          clip-rule="evenodd"/>
    <path fill="#EA4335" fill-rule="evenodd"
          d="M12 4.611c1.688 0 3.204.58 4.396 1.72l3.298-3.299C17.703 1.177 15.1.037 12 .037A11.496 11.496 0 0 0 1.723 6.373l3.842 2.98C6.47 6.632 9.005 4.61 12 4.61Z"
          clip-rule="evenodd"/>
</svg>
