<svg width="20" height="20" viewBox="0 0 20 20" fill="none" xmlns="http://www.w3.org/2000/svg">
<g id="Group 129">
<g id="heroicons-solid/document">
<g id="Subtract">
<path d="M4.6875 1.25C3.82456 1.25 3.125 1.94955 3.125 2.8125V17.1875C3.125 18.0504 3.82455 18.75 4.6875 18.75H15.3125C16.1754 18.75 16.875 18.0504 16.875 17.1875V10.625C16.875 8.89911 15.4759 7.5 13.75 7.5H12.1875C11.3246 7.5 10.625 6.80044 10.625 5.9375V4.375C10.625 2.64911 9.22589 1.25 7.5 1.25H4.6875Z" fill="#9CA3AF"/>
<path d="M10.8093 1.51325C11.4733 2.2804 11.875 3.28079 11.875 4.375V5.9375C11.875 6.11009 12.0149 6.25 12.1875 6.25H13.75C14.8442 6.25 15.8446 6.6517 16.6117 7.31567C15.8719 4.48323 13.6418 2.25315 10.8093 1.51325Z" fill="#9CA3AF"/>
</g>
</g>
<path id="pdf" d="M6.37213 17.145V13.53H6.93713L6.97713 13.905C7.12713 13.62 7.45213 13.455 7.82713 13.455C8.52213 13.455 8.98213 13.96 8.98213 14.735C8.98213 15.505 8.56213 16.065 7.82713 16.065C7.45713 16.065 7.13713 15.92 6.98213 15.67V17.145H6.37213ZM6.98713 14.765C6.98713 15.21 7.26213 15.515 7.68213 15.515C8.11213 15.515 8.36713 15.205 8.36713 14.765C8.36713 14.325 8.11213 14.01 7.68213 14.01C7.26213 14.01 6.98713 14.32 6.98713 14.765ZM10.4828 16.065C9.76783 16.065 9.32283 15.54 9.32283 14.775C9.32283 14.005 9.77283 13.455 10.5178 13.455C10.8628 13.455 11.1678 13.6 11.3228 13.845V12.28H11.9278V16H11.3678L11.3278 15.615C11.1778 15.9 10.8578 16.065 10.4828 16.065ZM10.6178 15.505C11.0428 15.505 11.3178 15.2 11.3178 14.755C11.3178 14.31 11.0428 14 10.6178 14C10.1928 14 9.93283 14.315 9.93283 14.755C9.93283 15.195 10.1928 15.505 10.6178 15.505ZM12.3185 13.53H12.6735V13.23C12.6735 12.56 13.0285 12.28 13.5635 12.28C13.6585 12.28 13.7735 12.285 13.8785 12.305V12.825H13.6635C13.3535 12.825 13.2785 12.985 13.2785 13.23V13.53H13.8685V14.04H13.2785V16H12.6735V14.04H12.3185V13.53Z" fill="white"/>
</g>
</svg>
