<svg xmlns="http://www.w3.org/2000/svg" width="284.138" height="329.714" viewBox="0 0 284.138 329.714">
  <path id="Path_2" data-name="Path 2" d="M319.224,127.4c-1.691-2.162-4.857-3.5-8.288-3.5h-124.8L207.061,8.1c.462-3.19-2.154-6.194-6.327-7.266S191.917.9,189.5,3.589L37.736,196.189a5.312,5.312,0,0,0-.2,6.981c1.684,2.182,4.864,3.533,8.314,3.534H168.782L152.2,322.676c-.335,3.178,2.36,6.113,6.535,7.117s8.759-.18,11.115-2.872L319.109,134.343a5.307,5.307,0,0,0,.114-6.947Z" transform="translate(-36.324 -0.434)" fill="#fff"/>
</svg>
